<!-- icon666.com - MILLIONS vector ICONS FREE --><svg version="1.1" id="Capa_1" xmlns="http://www.w3.org/2000/svg" xmlns:xlink="http://www.w3.org/1999/xlink" x="0px" y="0px" viewBox="0 0 512 512" style="enable-background:new 0 0 512 512;" xml:space="preserve"><g><g><g><path d="M248.581,337.351c2.751,0,5.547-0.701,8.129-2.174c51.519-29.482,87.169-67.955,103.108-111.264 c3.124-8.493-1.225-17.901-9.718-21.033c-8.467-3.097-17.909,1.225-21.033,9.718c-16.729,45.457-57.429,76.279-88.633,94.136 c-7.854,4.5-10.579,14.51-6.088,22.365C237.363,334.387,242.892,337.351,248.581,337.351z"></path><path d="M240.522,290.279c3.648-8.289-0.107-17.954-8.396-21.593c-22.924-10.082-41.774-30.734-51.723-56.657 c-3.248-8.449-12.735-12.629-21.175-9.425c-8.449,3.239-12.664,12.727-9.425,21.175c13.073,34.017,38.26,61.316,69.126,74.886 c2.148,0.941,4.384,1.393,6.585,1.393C231.816,300.059,237.824,296.394,240.522,290.279z"></path><path d="M454.788,368.564c-18.309-47.818-96.958-77.983-105.859-81.267c-8.005-2.946-16.978,0.754-20.545,8.529 c-15.948,34.656-43.096,55.353-72.632,55.353c-29.429,0-55.583-20.173-71.771-55.353c-3.568-7.774-12.531-11.466-20.545-8.529 c-8.901,3.284-87.533,33.44-105.851,81.258c-11.289,29.394-10.916,46.753-10.437,68.745c0.098,4.526,0.204,9.319,0.204,14.573 c0,9.052,7.313,16.392,16.365,16.392S80.1,460.934,80.1,451.882c0-5.502-0.098-10.534-0.204-15.283 c-0.435-20.528-0.71-32.908,8.271-56.311c9.141-23.873,48.457-45.67,73.298-56.764c22.169,38.118,56.551,60.429,94.287,60.429 c38.206,0,72.88-22.303,95.103-60.411c24.432,10.996,64.263,33.059,73.324,56.746c9.478,24.752,11.156,69.623,11.449,98.955 H59.919c-9.052,0-16.383,7.339-16.383,16.383S50.866,512,59.919,512h392.154c9.052,0,16.383-7.331,16.392-16.383 C468.464,450.462,466.84,400.044,454.788,368.564z"></path><path d="M117.126,187.18h275.6c9.043,0,16.383-7.331,16.383-16.383s-7.331-16.383-16.383-16.383h-0.703 C387.335,54.656,339.027,0,254.775,0c-23.66,0-44.705,4.782-62.808,13.901c-1.263,0.479-2.453,1.1-3.544,1.86 c-42.531,23.27-67.922,71.443-71.435,138.659c-8.987,0.075-16.244,7.371-16.244,16.376 C100.743,179.849,108.074,187.18,117.126,187.18z M181.389,62.514V111.3c0,9.052,7.331,16.383,16.383,16.383 c9.044,0,16.383-7.331,16.383-16.383V39.769c7.262-2.831,15.313-4.889,24.237-6.017V111.3c0,9.052,7.331,16.383,16.383,16.383 c9.043,0,16.374-7.331,16.383-16.383V33.695c8.721,1.035,16.806,2.927,24.246,5.681V111.3c0,9.052,7.331,16.383,16.383,16.383 c9.043,0,16.374-7.331,16.383-16.383V61.277c18.572,20.302,28.965,51.399,31.069,93.136H149.802 C151.585,124.183,158.969,87.618,181.389,62.514z"></path></g></g></g></svg>