<svg xmlns="http://www.w3.org/2000/svg" version="1.1" viewBox="-5.0 -10.0 110.0 135.0">
 <path d="m87.656 56.25-2.0312 6.0938c-1.25 3.8438-4.8438 6.4062-8.875 6.4062h-46.375c-4.6875 0-8.5625-3.3438-9.2812-7.9688l-4.8438-45.5c-0.1875-1.5938-1.5312-2.7812-3.125-2.7812h-6.875c-1.7188 0-3.125-1.4062-3.125-3.125s1.4062-3.125 3.125-3.125h6.875c4.8125 0 8.8125 3.5938 9.3125 8.375l1.125 10.375h70.188c1 0 1.9375 0.46875 2.5312 1.3125 0.59375 0.8125 0.75 1.875 0.4375 2.8125l-2.8125 8.375h-43.906c-1.7188 0-3.125 1.4062-3.125 3.125s1.4062 3.125 3.125 3.125h41.844l-2.0938 6.25h-46c-1.7188 0-3.125 1.4062-3.125 3.125s1.4062 3.125 3.125 3.125zm-53.281 28.125c0-5.1562-4.2188-9.375-9.375-9.375s-9.375 4.2188-9.375 9.375 4.2188 9.375 9.375 9.375 9.375-4.2188 9.375-9.375zm-6.25 0c0 1.7188-1.4062 3.125-3.125 3.125s-3.125-1.4062-3.125-3.125 1.4062-3.125 3.125-3.125 3.125 1.4062 3.125 3.125zm68.75 0c0-5.1562-4.2188-9.375-9.375-9.375s-9.375 4.2188-9.375 9.375 4.2188 9.375 9.375 9.375 9.375-4.2188 9.375-9.375zm-6.25 0c0 1.7188-1.4062 3.125-3.125 3.125s-3.125-1.4062-3.125-3.125 1.4062-3.125 3.125-3.125 3.125 1.4062 3.125 3.125z" fill="#fff"/></svg>