<svg xmlns="http://www.w3.org/2000/svg" version="1.2" viewBox="0 0 153 35" width="270" height="35">
	<title>logo-white-svg</title>
	<defs>
		<linearGradient id="g1" x2="1" gradientUnits="userSpaceOnUse" gradientTransform="matrix(40.227,4.586,-3.524,30.913,90.819,3.216)">
			<stop offset="0" stop-color="#f24617"/>
			<stop offset="1" stop-color="#fd8900"/>
		</linearGradient>
	</defs>
	<style>
		tspan { white-space:pre } 
		.s0 { fill: url(#g1) } 
		.t1 { font-size: 24px;fill: #ffffff;font-weight: 700;font-family: "DrukCyr-Bold", "Druk Cyr" } 
	</style>
	<path id="Layer" transform="translate(-48,0)" fill-rule="evenodd" class="s0" d="m109.5 3.2c8.3 0 15 6.7 15 14.9 0 1.8-0.3 3.5-0.9 5l-15.1 0.1c-1.8-0.3-3.3-1.6-3.9-3.3h14.9q0.1-0.9 0.1-1.8 0-0.8-0.1-1.6-0.2-0.9-0.4-1.7c-1.4-3.9-5.2-6.7-9.6-6.7-4.4 0-8.2 2.8-9.6 6.7h5.6c0.9-1.1 2.4-1.9 4-1.9 1.6 0 3 0.8 4 1.9q0.6 0.7 0.9 1.7-11.8 0-23.6 0v-1.7h4c1.6-6.6 7.5-11.6 14.7-11.6zm2.2 29.6q-1.1 0.2-2.2 0.2c-7.7 0-14-5.7-14.9-13.1h4.9c0.9 4.7 5 8.2 10 8.2q0.5 0 1.1 0 0.9-0.1 1.9-0.4h15.7v1.7h-8.9c-2.1 1.8-4.7 3-7.6 3.4z"/>
	<text id="ДОНЛЕС" style="transform: matrix(2.363,0,0,1.486,4,30)">
		<tspan x="-20" y="0" class="t1">Д</tspan><tspan y="0" class="t1">О</tspan><tspan y="0" class="t1">Н</tspan><tspan y="0" class="t1">Л</tspan><tspan y="0" class="t1">Е</tspan><tspan y="0" class="t1">С</tspan>
	</text>
</svg>